# xmcd CD database file
#
# Track frame offsets:
#	150
#	116047
#	124737
#	144317
#	180687
#
# Disc length: 2666 seconds
#
# Revision: 0
# Processed by: cddbd v1.5.1PL0 Copyright (c) Steve Scherf et al.
# Submitted via: CDex 1.50beta8
#
DISCID=420a6805
DTITLE=遠藤賢司バンド - 不滅の男　黒盤
DYEAR=1991
DGENRE=Rock
TTITLE0=輪島の瞳
TTITLE1=もうすぐ雪がふる
TTITLE2=ねえ踊ろうよ
TTITLE3=プンプンプン
TTITLE4=不滅の男
EXTD=YEAR: 1991
EXTT0=
EXTT1=
EXTT2=
EXTT3=
EXTT4=
PLAYORDER=
